M48
; DRILL file {KiCad 7.0.10} date Wed Mar  6 16:20:37 2024
; FORMAT={-:-/ absolute / inch / decimal}
; #@! TF.CreationDate,2024-03-06T16:20:37-05:00
; #@! TF.GenerationSoftware,Kicad,Pcbnew,7.0.10
; #@! TF.FileFunction,Plated,1,2,PTH
FMAT,2
INCH
; #@! TA.AperFunction,Plated,PTH,ViaDrill
T1C0.0118
; #@! TA.AperFunction,Plated,PTH,ViaDrill
T2C0.0157
; #@! TA.AperFunction,Plated,PTH,ComponentDrill
T3C0.0197
; #@! TA.AperFunction,Plated,PTH,ViaDrill
T4C0.0236
; #@! TA.AperFunction,Plated,PTH,ComponentDrill
T5C0.0236
; #@! TA.AperFunction,Plated,PTH,ComponentDrill
T6C0.0280
; #@! TA.AperFunction,Plated,PTH,ViaDrill
T7C0.0315
; #@! TA.AperFunction,Plated,PTH,ComponentDrill
T8C0.0335
; #@! TA.AperFunction,Plated,PTH,ViaDrill
T9C0.0394
; #@! TA.AperFunction,Plated,PTH,ComponentDrill
T10C0.0394
; #@! TA.AperFunction,Plated,PTH,ComponentDrill
T11C0.0472
; #@! TA.AperFunction,Plated,PTH,ViaDrill
T12C0.0492
; #@! TA.AperFunction,Plated,PTH,ComponentDrill
T13C0.0512
; #@! TA.AperFunction,Plated,PTH,ComponentDrill
T14C0.0669
; #@! TA.AperFunction,Plated,PTH,ComponentDrill
T15C0.0700
; #@! TA.AperFunction,Plated,PTH,ViaDrill
T16C0.0787
; #@! TA.AperFunction,Plated,PTH,ComponentDrill
T17C0.0984
; #@! TA.AperFunction,Plated,PTH,ViaDrill
T18C0.1575
%
G90
G05
T1
X2.6684Y-6.057
T2
X1.3399Y-5.3425
X1.341Y-4.8976
X1.341Y-5.0421
X1.3695Y-4.7415
X1.3697Y-5.2376
X1.5747Y-5.2374
X1.5749Y-5.0433
X1.6206Y-5.1429
X1.6206Y-4.7973
X1.6698Y-3.7035
X1.6913Y-2.7893
X1.7107Y-6.0876
X1.7115Y-5.9735
X1.7174Y-6.2071
X1.7174Y-5.6153
X1.7174Y-6.5326
X1.718Y-1.8587
X1.7215Y-1.7506
X1.7468Y-6.5613
X1.7659Y-6.4962
X1.7665Y-4.1183
X1.7758Y-6.5879
X1.82Y-3.8
X1.8263Y-3.966
X1.838Y-2.9652
X1.84Y-2.54
X1.84Y-2.84
X1.84Y-3.44
X1.85Y-3.9195
X1.8636Y-3.1472
X1.9Y-2.8
X1.9Y-2.9503
X1.9Y-3.9
X1.9073Y-3.7279
X1.9324Y-3.3463
X1.9327Y-3.7581
X1.9352Y-3.8771
X1.9353Y-3.7973
X1.9361Y-6.3659
X1.9421Y-2.2583
X1.9421Y-2.8738
X1.9571Y-2.0901
X1.9706Y-2.7682
X1.9737Y-3.8291
X1.974Y-2.9789
X1.9835Y-4.2663
X1.9972Y-2.845
X1.9972Y-2.9021
X2.0Y-4.55
X2.0315Y-3.4939
X2.0321Y-2.2726
X2.0387Y-5.6557
X2.1141Y-5.567
X2.1256Y-3.9345
X2.1267Y-6.4541
X2.1444Y-2.9822
X2.1681Y-6.1569
X2.1721Y-5.527
X2.2212Y-2.7108
X2.267Y-3.7498
X2.267Y-4.2599
X2.306Y-1.8552
X2.3074Y-3.4064
X2.3077Y-2.7872
X2.3077Y-1.6808
X2.3962Y-1.7121
X2.3989Y-1.9481
X2.45Y-3.05
X2.4609Y-6.0776
X2.4717Y-3.9787
X2.491Y-1.5739
X2.4936Y-6.0774
X2.5Y-2.7
X2.5Y-2.95
X2.5078Y-4.4246
X2.5252Y-6.0774
X2.5808Y-3.4859
X2.5838Y-5.916
X2.5847Y-1.65
X2.6Y-1.5
X2.6172Y-5.9156
X2.6298Y-2.4757
X2.6433Y-2.7675
X2.6496Y-5.9164
X2.65Y-1.5
X2.65Y-2.0
X2.6531Y-6.2397
X2.6771Y-5.7993
X2.6773Y-5.832
X2.6773Y-5.8636
X2.6819Y-1.5296
X2.6858Y-6.2395
X2.6957Y-2.0432
X2.696Y-2.8996
X2.7Y-1.6
X2.7019Y-5.7607
X2.7022Y-5.9017
X2.7174Y-6.2395
X2.7346Y-5.7605
X2.7348Y-5.9015
X2.7452Y-2.8428
X2.75Y-1.5
X2.7662Y-5.7605
X2.7664Y-5.9014
X2.7783Y-1.7782
X2.8Y-3.3435
X2.8Y-4.3311
X2.8301Y-1.9673
X2.8745Y-2.5755
X2.8811Y-4.0835
X2.8811Y-5.2458
X2.8836Y-3.0301
X2.8978Y-1.9672
X2.9158Y-4.2221
X2.9158Y-5.3381
X2.9775Y-1.7395
X2.9779Y-1.3974
X2.9823Y-2.2349
X3.0233Y-1.3431
X3.0233Y-1.4579
X3.068Y-1.7834
X3.0689Y-2.1479
X3.0744Y-6.3244
X3.0759Y-6.4583
X3.0886Y-5.899
X3.0905Y-5.7614
X3.1028Y-5.6175
X3.103Y-2.8966
X3.1049Y-1.835
X3.1066Y-6.3239
X3.107Y-2.3502
X3.1074Y-6.0692
X3.1082Y-6.4578
X3.1213Y-5.8988
X3.1232Y-5.7612
X3.1336Y-6.0397
X3.1398Y-6.3916
X3.1401Y-6.3597
X3.1403Y-6.4238
X3.1446Y-6.0061
X3.1511Y-4.3034
X3.1511Y-5.0493
X3.1529Y-5.8988
X3.1548Y-5.7612
X3.1861Y-5.8667
X3.1866Y-5.7985
X3.1866Y-5.8331
X3.1886Y-4.3518
X3.19Y-5.1385
X3.1902Y-1.4902
X3.1968Y-1.8841
X3.1986Y-2.0459
X3.2Y-2.35
X3.2144Y-3.7
X3.2226Y-1.3351
X3.2319Y-4.7018
X3.2486Y-5.1888
X3.3953Y-4.3176
X3.4157Y-2.5197
X3.55Y-2.45
X3.55Y-2.6
X3.5658Y-2.2213
X3.5713Y-5.5702
X3.65Y-2.35
X3.65Y-2.6
X3.6753Y-2.2208
X3.6804Y-3.018
X3.7319Y-2.3225
X3.7335Y-2.2184
X3.779Y-4.2757
X3.7832Y-2.2256
X3.8293Y-3.8108
X3.8318Y-2.2007
X3.8322Y-5.5232
X3.8323Y-4.6114
X3.8334Y-2.3553
X3.8337Y-2.7569
X4.0Y-1.4
X4.0Y-3.7
X4.033Y-4.3176
X4.0387Y-2.2469
X4.05Y-5.45
X4.2327Y-2.5048
X4.3Y-2.0
X4.3Y-2.4
X4.3Y-4.65
X4.35Y-1.45
X4.35Y-2.9
X4.3739Y-1.7837
X4.3956Y-5.7212
X4.4Y-1.5
X4.4Y-1.6
X4.4159Y-1.3295
X4.4255Y-2.2927
X4.4255Y-2.8373
X4.472Y-2.6533
X4.472Y-5.7133
X4.4733Y-2.3538
X4.502Y-4.2033
X4.532Y-2.5733
X4.532Y-4.3333
X4.5607Y-4.1662
X4.5607Y-5.8985
X4.6Y-2.7489
X4.6Y-5.7804
X4.6394Y-6.0166
X4.6394Y-6.1347
X4.642Y-2.8633
X4.642Y-2.9833
X4.642Y-4.2533
X4.642Y-4.4433
X4.642Y-4.5633
X4.6618Y-2.5774
X4.6665Y-5.8769
X4.6689Y-5.7084
X4.6717Y-4.1526
X4.6727Y-4.3028
X4.6798Y-2.7296
X5.0Y-4.7
X5.0Y-6.3
X5.0002Y-3.1103
X5.1116Y-2.5776
X5.1117Y-1.843
X5.1138Y-4.1539
X5.1151Y-6.0281
X5.1155Y-3.4206
X5.1219Y-6.3704
X5.1242Y-4.9943
X5.1243Y-5.7277
X5.1512Y-3.6158
X5.1519Y-2.6284
X5.1523Y-2.0403
X5.1525Y-4.2025
X5.1543Y-5.7765
X5.157Y-5.1895
X5.1831Y-2.237
X5.1844Y-4.2501
X5.1844Y-2.6781
X5.1847Y-3.8125
X5.1926Y-5.3869
X5.1926Y-5.8264
X5.2082Y-2.8761
X5.2092Y-3.2224
X5.218Y-4.454
X5.2202Y-4.796
X5.2205Y-4.3027
X5.2241Y-4.0092
X5.2306Y-2.7291
X5.233Y-2.4353
X5.241Y-5.5843
X5.2424Y-5.8765
X5.2758Y-4.3535
X5.2767Y-4.209
X5.2806Y-5.9275
X5.2814Y-5.7814
X5.284Y-2.6332
X5.284Y-2.7789
T3
X1.174Y-1.4478
X1.1956Y-1.3956
X1.1956Y-1.5
X1.2024Y-6.8456
X1.224Y-6.7934
X1.224Y-6.8978
X1.2478Y-1.374
X1.2478Y-1.5216
X1.2762Y-6.7718
X1.2762Y-6.9194
X1.3Y-1.3956
X1.3Y-1.5
X1.3216Y-1.4478
X1.3284Y-6.7934
X1.3284Y-6.8978
X1.35Y-6.8456
X5.8524Y-6.85
X5.874Y-1.4478
X5.874Y-6.7978
X5.874Y-6.9022
X5.8956Y-1.3956
X5.8956Y-1.5
X5.9262Y-6.7762
X5.9262Y-6.9238
X5.9478Y-1.374
X5.9478Y-1.5216
X5.9784Y-6.7978
X5.9784Y-6.9022
X6.0Y-1.3956
X6.0Y-1.5
X6.0Y-6.85
X6.0216Y-1.4478
T4
X4.6Y-2.0
X4.6371Y-1.9473
X4.7Y-1.7
X4.7Y-1.9
X4.757Y-1.8447
X4.7609Y-1.7398
X4.819Y-1.7926
T6
X1.7386Y-4.6431
X1.7386Y-4.7431
X1.7386Y-4.8431
X1.7386Y-4.9431
X1.7386Y-5.0431
X1.7386Y-5.1431
X1.7386Y-5.2431
X1.7386Y-5.3431
X2.0484Y-4.6431
X2.0484Y-4.7431
X2.0484Y-4.8431
X2.0484Y-4.9431
X2.0484Y-5.0431
X2.0484Y-5.1431
X2.0484Y-5.2431
X2.0484Y-5.3431
T7
X1.9547Y-6.5622
T8
X2.5531Y-1.4412
X2.75Y-1.4412
T9
X1.55Y-1.85
X1.6Y-1.65
X1.6Y-2.05
X1.6Y-2.25
X1.6297Y-5.9722
X1.8398Y-2.2603
X2.0352Y-2.2251
X2.0386Y-6.2535
X2.1141Y-6.3885
X2.22Y-2.58
X2.5955Y-3.5456
X2.6726Y-3.4868
X2.6979Y-3.3447
X2.7236Y-4.2266
X2.7339Y-4.0907
X3.2133Y-3.5692
X3.2496Y-4.2
X3.3953Y-4.2128
X4.2287Y-4.2552
X4.2952Y-3.0194
X4.3235Y-4.2016
X4.5741Y-2.293
T10
X1.1994Y-1.65
X1.2Y-1.85
X1.2Y-2.05
X1.2Y-2.25
X1.2507Y-4.6421
X1.2507Y-4.7421
X1.2507Y-4.8421
X1.2507Y-4.9421
X1.2507Y-5.0421
X1.2994Y-1.65
X1.3Y-1.85
X1.3Y-2.05
X1.3Y-2.25
X1.3994Y-1.65
X1.4Y-1.85
X1.4Y-2.05
X1.4Y-2.25
X4.6Y-1.4
X4.6Y-1.5
X4.6Y-1.6
X5.586Y-3.4182
X5.586Y-3.8119
X5.5889Y-1.8434
X5.5891Y-4.2056
X5.5891Y-4.5993
X5.5896Y-2.2371
X5.5896Y-2.6308
X5.5896Y-3.0245
X5.5896Y-4.993
X5.5896Y-5.3867
X5.5896Y-5.7804
X5.5896Y-6.1741
X5.686Y-3.4182
X5.686Y-3.8119
X5.6889Y-1.8434
X5.6891Y-4.2056
X5.6891Y-4.5993
X5.6896Y-2.2371
X5.6896Y-2.6308
X5.6896Y-3.0245
X5.6896Y-4.993
X5.6896Y-5.3867
X5.6896Y-5.7804
X5.6896Y-6.1741
X5.8974Y-4.009
X5.9Y-2.0402
X5.9Y-2.4339
X5.9Y-2.8276
X5.9Y-3.2213
X5.9Y-3.615
X5.9Y-4.4024
X5.9Y-4.7961
X5.9Y-5.1898
X5.9Y-5.5835
X5.9Y-5.9772
X5.9Y-6.3709
X5.9974Y-4.009
X6.0Y-2.0402
X6.0Y-2.4339
X6.0Y-2.8276
X6.0Y-3.2213
X6.0Y-3.615
X6.0Y-4.4024
X6.0Y-4.7961
X6.0Y-5.1898
X6.0Y-5.5835
X6.0Y-5.9772
X6.0Y-6.3709
T11
X1.62Y-3.82
T12
X2.9266Y-6.0683
T13
X1.46Y-4.7974
X1.46Y-4.8974
X1.46Y-5.1376
X1.46Y-5.2376
X1.6093Y-2.538
X1.6093Y-2.638
X1.62Y-2.88
X1.62Y-2.98
X1.62Y-3.92
X1.7383Y-3.4403
X1.7383Y-3.5403
T14
X1.3078Y-2.8895
X1.3078Y-3.0454
X1.3081Y-2.5186
X1.3081Y-2.6745
X1.3187Y-3.4157
X1.3187Y-3.5716
X1.3218Y-3.7871
X1.3218Y-3.943
T15
X1.3453Y-6.2984
X1.3453Y-6.4543
X3.0504Y-6.7986
X3.2063Y-6.7986
X3.3622Y-6.7986
T16
X3.698Y-1.6345
T17
X1.2478Y-1.4478
X1.2762Y-6.8456
X5.9262Y-6.85
X5.9478Y-1.4478
T18
X4.0Y-6.7
T5
G00X2.5138Y-1.3487
M15
G01X2.5138Y-1.3211
M16
G05
G00X2.7894Y-1.3211
M15
G01X2.7894Y-1.3487
M16
G05
M30
