%TF.GenerationSoftware,KiCad,Pcbnew,7.0.10*%
%TF.CreationDate,2024-04-07T12:33:45-04:00*%
%TF.ProjectId,477grp2_pcb,34373767-7270-4325-9f70-63622e6b6963,rev?*%
%TF.SameCoordinates,Original*%
%TF.FileFunction,Soldermask,Top*%
%TF.FilePolarity,Negative*%
%FSLAX46Y46*%
G04 Gerber Fmt 4.6, Leading zero omitted, Abs format (unit mm)*
G04 Created by KiCad (PCBNEW 7.0.10) date 2024-04-07 12:33:45*
%MOMM*%
%LPD*%
G01*
G04 APERTURE LIST*
G04 Aperture macros list*
%AMRoundRect*
0 Rectangle with rounded corners*
0 $1 Rounding radius*
0 $2 $3 $4 $5 $6 $7 $8 $9 X,Y pos of 4 corners*
0 Add a 4 corners polygon primitive as box body*
4,1,4,$2,$3,$4,$5,$6,$7,$8,$9,$2,$3,0*
0 Add four circle primitives for the rounded corners*
1,1,$1+$1,$2,$3*
1,1,$1+$1,$4,$5*
1,1,$1+$1,$6,$7*
1,1,$1+$1,$8,$9*
0 Add four rect primitives between the rounded corners*
20,1,$1+$1,$2,$3,$4,$5,0*
20,1,$1+$1,$4,$5,$6,$7,0*
20,1,$1+$1,$6,$7,$8,$9,0*
20,1,$1+$1,$8,$9,$2,$3,0*%
G04 Aperture macros list end*
%ADD10R,0.400000X1.350000*%
%ADD11O,1.200000X1.900000*%
%ADD12R,1.200000X1.900000*%
%ADD13C,1.450000*%
%ADD14R,1.500000X1.900000*%
%ADD15C,0.800000*%
%ADD16C,5.000000*%
%ADD17RoundRect,0.250000X-0.350000X-0.450000X0.350000X-0.450000X0.350000X0.450000X-0.350000X0.450000X0*%
%ADD18R,1.219200X1.219200*%
%ADD19C,1.219200*%
%ADD20RoundRect,0.250000X0.475000X-0.250000X0.475000X0.250000X-0.475000X0.250000X-0.475000X-0.250000X0*%
%ADD21RoundRect,0.250000X-0.337500X-0.475000X0.337500X-0.475000X0.337500X0.475000X-0.337500X0.475000X0*%
%ADD22RoundRect,0.250000X0.350000X0.450000X-0.350000X0.450000X-0.350000X-0.450000X0.350000X-0.450000X0*%
%ADD23R,2.159000X0.558800*%
%ADD24R,1.700000X1.700000*%
%ADD25O,1.700000X1.700000*%
%ADD26RoundRect,0.250000X-1.500000X-0.550000X1.500000X-0.550000X1.500000X0.550000X-1.500000X0.550000X0*%
%ADD27RoundRect,0.250000X-0.250000X-0.475000X0.250000X-0.475000X0.250000X0.475000X-0.250000X0.475000X0*%
%ADD28RoundRect,0.237500X-0.237500X0.250000X-0.237500X-0.250000X0.237500X-0.250000X0.237500X0.250000X0*%
%ADD29C,2.000000*%
%ADD30RoundRect,0.250000X0.412500X0.650000X-0.412500X0.650000X-0.412500X-0.650000X0.412500X-0.650000X0*%
%ADD31RoundRect,0.249999X0.450001X1.425001X-0.450001X1.425001X-0.450001X-1.425001X0.450001X-1.425001X0*%
%ADD32RoundRect,0.250001X1.099999X-1.099999X1.099999X1.099999X-1.099999X1.099999X-1.099999X-1.099999X0*%
%ADD33C,2.700000*%
%ADD34RoundRect,0.250000X0.337500X0.475000X-0.337500X0.475000X-0.337500X-0.475000X0.337500X-0.475000X0*%
%ADD35RoundRect,0.102000X0.934007X0.853577X-0.934007X0.853577X-0.934007X-0.853577X0.934007X-0.853577X0*%
%ADD36RoundRect,0.102000X0.747500X0.140000X-0.747500X0.140000X-0.747500X-0.140000X0.747500X-0.140000X0*%
%ADD37RoundRect,0.102000X-0.747500X-0.140000X0.747500X-0.140000X0.747500X0.140000X-0.747500X0.140000X0*%
%ADD38RoundRect,0.102000X-1.014606X-0.666427X1.014606X-0.666427X1.014606X0.666427X-1.014606X0.666427X0*%
%ADD39RoundRect,0.102000X0.825000X1.190000X-0.825000X1.190000X-0.825000X-1.190000X0.825000X-1.190000X0*%
%ADD40RoundRect,0.250000X0.450000X-0.350000X0.450000X0.350000X-0.450000X0.350000X-0.450000X-0.350000X0*%
%ADD41R,1.500000X2.000000*%
%ADD42R,3.800000X2.000000*%
%ADD43R,1.550000X1.300000*%
%ADD44R,4.746212X0.990990*%
%ADD45R,4.736608X0.950274*%
%ADD46R,4.718447X0.857962*%
%ADD47R,4.709890X0.957090*%
%ADD48R,4.721003X0.946486*%
%ADD49R,4.694146X0.918986*%
%ADD50R,4.686903X0.917910*%
%ADD51R,4.692000X0.917165*%
%ADD52R,4.718325X0.947593*%
%ADD53R,4.673347X0.924210*%
%ADD54R,4.655958X0.933320*%
%ADD55R,4.697885X0.905576*%
%ADD56R,4.732265X0.942006*%
%ADD57R,4.686426X0.955516*%
%ADD58R,0.883533X4.539403*%
%ADD59R,0.886454X4.528385*%
%ADD60R,0.900393X4.484313*%
%ADD61R,0.881277X4.495331*%
%ADD62R,0.895216X4.484313*%
%ADD63R,0.909155X4.495331*%
%ADD64R,0.936338X4.497776*%
%ADD65R,0.894556X4.460296*%
%ADD66R,0.877726X4.485282*%
%ADD67R,0.860912X4.497776*%
%ADD68R,0.881586X4.497776*%
%ADD69R,0.902257X4.485282*%
%ADD70R,4.704469X0.982261*%
%ADD71R,4.713913X0.903635*%
%ADD72R,4.731133X0.899371*%
%ADD73R,4.731133X0.886497*%
%ADD74R,4.739743X0.908063*%
%ADD75R,4.738300X0.899395*%
%ADD76R,4.738300X0.906077*%
%ADD77R,4.755523X0.914370*%
%ADD78R,4.764229X0.887200*%
%ADD79R,4.755523X0.912266*%
%ADD80R,4.765540X0.932098*%
%ADD81R,4.765540X0.895188*%
%ADD82R,4.765540X0.897888*%
%ADD83R,4.764404X0.847973*%
%ADD84R,3.699994X3.699994*%
%ADD85RoundRect,0.250000X0.250000X0.475000X-0.250000X0.475000X-0.250000X-0.475000X0.250000X-0.475000X0*%
%ADD86RoundRect,0.250000X-0.475000X0.250000X-0.475000X-0.250000X0.475000X-0.250000X0.475000X0.250000X0*%
%ADD87RoundRect,0.250000X0.450000X-0.262500X0.450000X0.262500X-0.450000X0.262500X-0.450000X-0.262500X0*%
%ADD88RoundRect,0.243750X0.456250X-0.243750X0.456250X0.243750X-0.456250X0.243750X-0.456250X-0.243750X0*%
%ADD89RoundRect,0.102000X-1.064000X1.064000X-1.064000X-1.064000X1.064000X-1.064000X1.064000X1.064000X0*%
%ADD90C,2.332000*%
%ADD91R,1.750000X0.450000*%
%ADD92R,2.288312X1.738814*%
%ADD93RoundRect,0.102000X1.064000X1.064000X-1.064000X1.064000X-1.064000X-1.064000X1.064000X-1.064000X0*%
%ADD94RoundRect,0.237500X-0.250000X-0.237500X0.250000X-0.237500X0.250000X0.237500X-0.250000X0.237500X0*%
%ADD95RoundRect,0.250000X-0.450000X0.350000X-0.450000X-0.350000X0.450000X-0.350000X0.450000X0.350000X0*%
%ADD96RoundRect,0.243750X-0.456250X0.243750X-0.456250X-0.243750X0.456250X-0.243750X0.456250X0.243750X0*%
%ADD97RoundRect,0.237500X-0.237500X0.300000X-0.237500X-0.300000X0.237500X-0.300000X0.237500X0.300000X0*%
%ADD98RoundRect,0.250000X-0.412500X-0.650000X0.412500X-0.650000X0.412500X0.650000X-0.412500X0.650000X0*%
%ADD99R,1.899999X0.249990*%
%ADD100R,1.899999X0.255000*%
%ADD101R,1.899999X0.249988*%
%ADD102R,1.899999X0.254999*%
%ADD103R,1.899999X0.254998*%
%ADD104R,1.899999X0.249998*%
%ADD105R,1.899999X0.254996*%
%ADD106R,1.899999X0.249992*%
%ADD107R,1.599999X1.049998*%
%ADD108R,1.599999X0.800001*%
%ADD109R,1.599998X1.049998*%
%ADD110RoundRect,0.237500X0.237500X-0.250000X0.237500X0.250000X-0.237500X0.250000X-0.237500X-0.250000X0*%
%ADD111R,2.229258X1.987174*%
G04 APERTURE END LIST*
%TO.C,U1*%
G36*
X77037010Y-155959132D02*
G01*
X77037008Y-156109132D01*
X76987011Y-156159132D01*
X76744009Y-156159132D01*
X76711009Y-156192131D01*
X76711009Y-156375131D01*
X76738009Y-156409131D01*
X76986010Y-156409131D01*
X77036010Y-156459131D01*
X77036010Y-156609131D01*
X76986010Y-156659133D01*
X75887010Y-156659133D01*
X75837010Y-156609131D01*
X75837008Y-155959132D01*
X75887010Y-155909132D01*
X76987011Y-155909132D01*
X77037010Y-155959132D01*
G37*
%TD*%
D10*
%TO.C,J1*%
X68650000Y-36606190D03*
X68000000Y-36606190D03*
X67350000Y-36606190D03*
X66700000Y-36606190D03*
X66050000Y-36606190D03*
D11*
X70850000Y-33906190D03*
D12*
X70250000Y-33906190D03*
D13*
X69850000Y-36606190D03*
D14*
X68350000Y-33906190D03*
X66350000Y-33906190D03*
D13*
X64850000Y-36606190D03*
D12*
X64450000Y-33906190D03*
D11*
X63850000Y-33906190D03*
%TD*%
D15*
%TO.C,H4*%
X33569175Y-36774175D03*
X33020000Y-38100000D03*
X33020000Y-35448350D03*
X31694175Y-38649175D03*
D16*
X31694175Y-36774175D03*
D15*
X31694175Y-34899175D03*
X30368350Y-38100000D03*
X30368350Y-35448350D03*
X29819175Y-36774175D03*
%TD*%
D17*
%TO.C,R50*%
X135840901Y-96821145D03*
X137840901Y-96821145D03*
%TD*%
D18*
%TO.C,U2*%
X52030197Y-135713480D03*
D19*
X52030197Y-133173480D03*
X52030197Y-130633480D03*
X52030197Y-128093480D03*
X52030197Y-125553480D03*
X52030197Y-123013480D03*
X52030197Y-120473480D03*
X52030197Y-117933480D03*
X44160200Y-117933480D03*
X44160200Y-120473480D03*
X44160200Y-123013480D03*
X44160200Y-125553480D03*
X44160200Y-128093480D03*
X44160200Y-130633480D03*
X44160200Y-133173480D03*
X44160200Y-135713480D03*
%TD*%
D20*
%TO.C,C1*%
X70539234Y-48563416D03*
X70539234Y-46663416D03*
%TD*%
D15*
%TO.C,H2*%
X34290000Y-173878341D03*
X33740825Y-175204166D03*
X33740825Y-172552516D03*
X32415000Y-175753341D03*
D16*
X32415000Y-173878341D03*
D15*
X32415000Y-172003341D03*
X31089175Y-175204166D03*
X31089175Y-172552516D03*
X30540000Y-173878341D03*
%TD*%
D21*
%TO.C,C15*%
X123195681Y-159233624D03*
X125270681Y-159233624D03*
%TD*%
D22*
%TO.C,R20*%
X67191637Y-133169948D03*
X65191637Y-133169948D03*
%TD*%
D23*
%TO.C,U12*%
X127597301Y-113091145D03*
X127597301Y-111821145D03*
X127597301Y-110551145D03*
X127597301Y-109281145D03*
X127597301Y-108011145D03*
X127597301Y-106741145D03*
X127597301Y-105471145D03*
X127597301Y-104201145D03*
X120840901Y-104201145D03*
X120840901Y-105471145D03*
X120840901Y-106741145D03*
X120840901Y-108011145D03*
X120840901Y-109281145D03*
X120840901Y-110551145D03*
X120840901Y-111821145D03*
X120840901Y-113091145D03*
%TD*%
D24*
%TO.C,D39*%
X152333109Y-101827736D03*
D25*
X149793109Y-101827736D03*
%TD*%
D26*
%TO.C,C18*%
X55560000Y-103221861D03*
X60960000Y-103221861D03*
%TD*%
D24*
%TO.C,D37*%
X152400000Y-111821145D03*
D25*
X149860000Y-111821145D03*
%TD*%
D27*
%TO.C,C8*%
X47091471Y-115051601D03*
X48991471Y-115051601D03*
%TD*%
D28*
%TO.C,Rfbb1*%
X63340053Y-151327201D03*
X63340053Y-153152201D03*
%TD*%
D24*
%TO.C,D35*%
X152400000Y-121821145D03*
D25*
X149860000Y-121821145D03*
%TD*%
D29*
%TO.C,D10*%
X37083967Y-121854431D03*
X37083967Y-124394431D03*
%TD*%
D30*
%TO.C,Cout2*%
X72568153Y-148123035D03*
X69443153Y-148123035D03*
%TD*%
D17*
%TO.C,R54*%
X135840901Y-156821145D03*
X137840901Y-156821145D03*
%TD*%
D24*
%TO.C,J4*%
X35560000Y-52070000D03*
D25*
X33020000Y-52070000D03*
X30480000Y-52070000D03*
%TD*%
D24*
%TO.C,J6*%
X35545000Y-41910000D03*
D25*
X33005000Y-41910000D03*
X30465000Y-41910000D03*
%TD*%
D31*
%TO.C,R9*%
X52644327Y-172107706D03*
X46544327Y-172107706D03*
%TD*%
D24*
%TO.C,D49*%
X152400000Y-131821145D03*
D25*
X149860000Y-131821145D03*
%TD*%
D24*
%TO.C,D29*%
X152400000Y-71821145D03*
D25*
X149860000Y-71821145D03*
%TD*%
D15*
%TO.C,H3*%
X152949175Y-36774175D03*
X152400000Y-38100000D03*
X152400000Y-35448350D03*
X151074175Y-38649175D03*
D16*
X151074175Y-36774175D03*
D15*
X151074175Y-34899175D03*
X149748350Y-38100000D03*
X149748350Y-35448350D03*
X149199175Y-36774175D03*
%TD*%
D32*
%TO.C,M2*%
X33226635Y-67931330D03*
D33*
X33226635Y-63971330D03*
%TD*%
D34*
%TO.C,Cff1*%
X65231794Y-148095550D03*
X63156794Y-148095550D03*
%TD*%
D17*
%TO.C,R37*%
X135840901Y-81821145D03*
X137840901Y-81821145D03*
%TD*%
D35*
%TO.C,U23*%
X51629380Y-168142462D03*
D36*
X51442873Y-166928885D03*
X51442873Y-166428885D03*
X51442873Y-165928885D03*
X47857873Y-165928885D03*
D37*
X47857873Y-166428885D03*
X47857873Y-166928885D03*
D38*
X47590767Y-167955312D03*
D39*
X49650373Y-166678885D03*
%TD*%
D40*
%TO.C,R23*%
X51095597Y-163970544D03*
X51095597Y-161970544D03*
%TD*%
D22*
%TO.C,R22*%
X68123671Y-128084027D03*
X66123671Y-128084027D03*
%TD*%
D40*
%TO.C,R15*%
X48867813Y-110322213D03*
X48867813Y-108322213D03*
%TD*%
D24*
%TO.C,D42*%
X144424501Y-86821145D03*
D25*
X141884501Y-86821145D03*
%TD*%
D24*
%TO.C,D30*%
X144516193Y-66821145D03*
D25*
X141976193Y-66821145D03*
%TD*%
D24*
%TO.C,J5*%
X35560000Y-57150000D03*
D25*
X33020000Y-57150000D03*
X30480000Y-57150000D03*
%TD*%
D29*
%TO.C,D9*%
X37083967Y-133034611D03*
X37083967Y-130494611D03*
%TD*%
D23*
%TO.C,U13*%
X127597301Y-153071145D03*
X127597301Y-151801145D03*
X127597301Y-150531145D03*
X127597301Y-149261145D03*
X127597301Y-147991145D03*
X127597301Y-146721145D03*
X127597301Y-145451145D03*
X127597301Y-144181145D03*
X120840901Y-144181145D03*
X120840901Y-145451145D03*
X120840901Y-146721145D03*
X120840901Y-147991145D03*
X120840901Y-149261145D03*
X120840901Y-150531145D03*
X120840901Y-151801145D03*
X120840901Y-153071145D03*
%TD*%
D24*
%TO.C,D43*%
X152400000Y-161821145D03*
D25*
X149860000Y-161821145D03*
%TD*%
D24*
%TO.C,D46*%
X144516193Y-146821145D03*
D25*
X141976193Y-146821145D03*
%TD*%
D22*
%TO.C,R21*%
X70155956Y-130555396D03*
X68155956Y-130555396D03*
%TD*%
D17*
%TO.C,R45*%
X135840901Y-121821145D03*
X137840901Y-121821145D03*
%TD*%
D22*
%TO.C,R11*%
X60960000Y-68580000D03*
X58960000Y-68580000D03*
%TD*%
D24*
%TO.C,D31*%
X152400000Y-61821145D03*
D25*
X149860000Y-61821145D03*
%TD*%
D29*
%TO.C,D5*%
X41148000Y-73152000D03*
X41148000Y-75692000D03*
%TD*%
D41*
%TO.C,U6*%
X84104799Y-129661735D03*
X86404799Y-129661735D03*
D42*
X86404799Y-123361735D03*
D41*
X88704799Y-129661735D03*
%TD*%
D43*
%TO.C,SW1*%
X84641499Y-68494601D03*
X76691499Y-68494601D03*
X84641499Y-63994601D03*
X76691499Y-63994601D03*
%TD*%
D26*
%TO.C,C13*%
X40320000Y-81612317D03*
X45720000Y-81612317D03*
%TD*%
D17*
%TO.C,R39*%
X135840901Y-71821145D03*
X137840901Y-71821145D03*
%TD*%
D24*
%TO.C,D33*%
X152400000Y-51821145D03*
D25*
X149860000Y-51821145D03*
%TD*%
D20*
%TO.C,C10*%
X87967156Y-67111247D03*
X87967156Y-65211247D03*
%TD*%
D44*
%TO.C,U3*%
X85082499Y-33909134D03*
D45*
X85087301Y-35158779D03*
D46*
X85096382Y-36382622D03*
D47*
X85100660Y-37702198D03*
D48*
X85095104Y-38966909D03*
D49*
X85108532Y-40223133D03*
D50*
X85112154Y-41492595D03*
D51*
X85109605Y-42762220D03*
D52*
X85096443Y-44047434D03*
D53*
X85118932Y-45305743D03*
D54*
X85127626Y-46580298D03*
D55*
X85106663Y-47836426D03*
D56*
X85089473Y-49124641D03*
D57*
X85112392Y-50401396D03*
D58*
X88478839Y-53143339D03*
D59*
X89747378Y-53137830D03*
D60*
X91010409Y-53115794D03*
D61*
X92289967Y-53121303D03*
D62*
X93552997Y-53115794D03*
D63*
X94816028Y-53121303D03*
D64*
X96072403Y-53122526D03*
D65*
X97363314Y-53103786D03*
D66*
X98641713Y-53116279D03*
D67*
X99920121Y-53122526D03*
D68*
X101179793Y-53122526D03*
D69*
X102439463Y-53116279D03*
D70*
X105807839Y-50414768D03*
D71*
X105812561Y-49105455D03*
D72*
X105821171Y-47833323D03*
D73*
X105821171Y-46556886D03*
D74*
X105825476Y-45297669D03*
D75*
X105824755Y-44023335D03*
D76*
X105824755Y-42756676D03*
D77*
X105833366Y-41490832D03*
D78*
X105837719Y-40207244D03*
D79*
X105833366Y-38949774D03*
D80*
X105838375Y-37689690D03*
D81*
X105838375Y-36401246D03*
D82*
X105838375Y-35132600D03*
D83*
X105837807Y-33837663D03*
D84*
X93955608Y-41583641D03*
%TD*%
D40*
%TO.C,R18*%
X49113414Y-88637822D03*
X49113414Y-86637822D03*
%TD*%
D17*
%TO.C,R58*%
X135840901Y-136821145D03*
X137840901Y-136821145D03*
%TD*%
D85*
%TO.C,C5*%
X87150000Y-116840000D03*
X85250000Y-116840000D03*
%TD*%
D24*
%TO.C,D41*%
X152400000Y-91821145D03*
D25*
X149860000Y-91821145D03*
%TD*%
D40*
%TO.C,R16*%
X53994555Y-110214103D03*
X53994555Y-108214103D03*
%TD*%
D86*
%TO.C,C19*%
X54328869Y-96516387D03*
X54328869Y-98416387D03*
%TD*%
D24*
%TO.C,D45*%
X152400000Y-151821145D03*
D25*
X149860000Y-151821145D03*
%TD*%
D87*
%TO.C,R3*%
X73186614Y-70273423D03*
X73186614Y-68448423D03*
%TD*%
D17*
%TO.C,R24*%
X43448573Y-156332334D03*
X45448573Y-156332334D03*
%TD*%
D88*
%TO.C,D3*%
X109220000Y-116840000D03*
X109220000Y-114965000D03*
%TD*%
D20*
%TO.C,C7*%
X108765417Y-66859091D03*
X108765417Y-64959091D03*
%TD*%
D40*
%TO.C,Rpg1*%
X64497448Y-158398908D03*
X64497448Y-156398908D03*
%TD*%
D89*
%TO.C,J9*%
X34170272Y-159978680D03*
D90*
X34170272Y-163938680D03*
%TD*%
D15*
%TO.C,H1*%
X152400000Y-173990000D03*
X151850825Y-175315825D03*
X151850825Y-172664175D03*
X150525000Y-175865000D03*
D16*
X150525000Y-173990000D03*
D15*
X150525000Y-172115000D03*
X149199175Y-175315825D03*
X149199175Y-172664175D03*
X148650000Y-173990000D03*
%TD*%
D86*
%TO.C,C6*%
X54016772Y-165265413D03*
X54016772Y-167165413D03*
%TD*%
D17*
%TO.C,R44*%
X135840901Y-46821145D03*
X137840901Y-46821145D03*
%TD*%
%TO.C,R59*%
X135840901Y-131821145D03*
X137840901Y-131821145D03*
%TD*%
%TO.C,R53*%
X135840901Y-161821145D03*
X137840901Y-161821145D03*
%TD*%
D20*
%TO.C,C2*%
X73179670Y-48511302D03*
X73179670Y-46611302D03*
%TD*%
D21*
%TO.C,C9*%
X123214665Y-78971032D03*
X125289665Y-78971032D03*
%TD*%
D40*
%TO.C,R25*%
X48455987Y-160242442D03*
X48455987Y-158242442D03*
%TD*%
D85*
%TO.C,C14*%
X80314306Y-37346009D03*
X78414306Y-37346009D03*
%TD*%
D24*
%TO.C,D38*%
X144502713Y-106821145D03*
D25*
X141962713Y-106821145D03*
%TD*%
D86*
%TO.C,C24*%
X54883303Y-72330969D03*
X54883303Y-74230969D03*
%TD*%
D91*
%TO.C,U10*%
X45004138Y-69737879D03*
X45004138Y-70387879D03*
X45004138Y-71037879D03*
X45004138Y-71687879D03*
X45004138Y-72337879D03*
X45004138Y-72987879D03*
X45004138Y-73637879D03*
X45004138Y-74287879D03*
X45004138Y-74937879D03*
X45004138Y-75587879D03*
X45004138Y-76237879D03*
X45004138Y-76887879D03*
X52204138Y-76887879D03*
X52204138Y-76237879D03*
X52204138Y-75587879D03*
X52204138Y-74937879D03*
X52204138Y-74287879D03*
X52204138Y-73637879D03*
X52204138Y-72987879D03*
X52204138Y-72337879D03*
X52204138Y-71687879D03*
X52204138Y-71037879D03*
X52204138Y-70387879D03*
D92*
X52473294Y-69093472D03*
%TD*%
D24*
%TO.C,D48*%
X144516193Y-136821145D03*
D25*
X141976193Y-136821145D03*
%TD*%
D17*
%TO.C,R49*%
X135840901Y-101821145D03*
X137840901Y-101821145D03*
%TD*%
D43*
%TO.C,SW2*%
X105575692Y-68202711D03*
X97625692Y-68202711D03*
X105575692Y-63702711D03*
X97625692Y-63702711D03*
%TD*%
D85*
%TO.C,C3*%
X80351730Y-34198111D03*
X78451730Y-34198111D03*
%TD*%
D17*
%TO.C,R43*%
X135840901Y-51821145D03*
X137840901Y-51821145D03*
%TD*%
D85*
%TO.C,C20*%
X48377173Y-104628539D03*
X46477173Y-104628539D03*
%TD*%
D17*
%TO.C,R41*%
X135840901Y-61821145D03*
X137840901Y-61821145D03*
%TD*%
D32*
%TO.C,M12*%
X33494750Y-90718578D03*
D33*
X33494750Y-86758578D03*
%TD*%
D17*
%TO.C,R42*%
X135840901Y-56821145D03*
X137840901Y-56821145D03*
%TD*%
D24*
%TO.C,D34*%
X144498120Y-46821145D03*
D25*
X141958120Y-46821145D03*
%TD*%
D22*
%TO.C,R19*%
X71201036Y-135594908D03*
X69201036Y-135594908D03*
%TD*%
D29*
%TO.C,D8*%
X44151554Y-87382399D03*
X44151554Y-89922399D03*
%TD*%
D17*
%TO.C,R55*%
X135840901Y-151821145D03*
X137840901Y-151821145D03*
%TD*%
%TO.C,R47*%
X135840901Y-111821145D03*
X137840901Y-111821145D03*
%TD*%
D24*
%TO.C,D28*%
X144516193Y-76821145D03*
D25*
X141976193Y-76821145D03*
%TD*%
D17*
%TO.C,R40*%
X135840901Y-66821145D03*
X137840901Y-66821145D03*
%TD*%
D93*
%TO.C,J10*%
X85400295Y-172683852D03*
D90*
X81440295Y-172683852D03*
X77480295Y-172683852D03*
%TD*%
D17*
%TO.C,R6*%
X44883902Y-59680813D03*
X46883902Y-59680813D03*
%TD*%
D94*
%TO.C,Rmode1*%
X66478316Y-151560151D03*
X68303316Y-151560151D03*
%TD*%
D22*
%TO.C,R10*%
X62230000Y-93980000D03*
X60230000Y-93980000D03*
%TD*%
D24*
%TO.C,J7*%
X35560000Y-46990000D03*
D25*
X33020000Y-46990000D03*
X30480000Y-46990000D03*
%TD*%
D17*
%TO.C,R46*%
X135840901Y-116821145D03*
X137840901Y-116821145D03*
%TD*%
%TO.C,R51*%
X135840901Y-91821145D03*
X137840901Y-91821145D03*
%TD*%
D40*
%TO.C,R17*%
X53742908Y-88524064D03*
X53742908Y-86524064D03*
%TD*%
D85*
%TO.C,C12*%
X50426284Y-79048129D03*
X48526284Y-79048129D03*
%TD*%
%TO.C,C4*%
X87369064Y-132099243D03*
X85469064Y-132099243D03*
%TD*%
D95*
%TO.C,R2*%
X74290232Y-35051142D03*
X74290232Y-37051142D03*
%TD*%
D17*
%TO.C,R57*%
X135840901Y-141821145D03*
X137840901Y-141821145D03*
%TD*%
D29*
%TO.C,D7*%
X41148000Y-97028000D03*
X41148000Y-99568000D03*
%TD*%
D24*
%TO.C,D44*%
X144516193Y-156821145D03*
D25*
X141976193Y-156821145D03*
%TD*%
D32*
%TO.C,M1*%
X33572928Y-100152078D03*
D33*
X33572928Y-96192078D03*
%TD*%
D40*
%TO.C,R1*%
X76150162Y-48596045D03*
X76150162Y-46596045D03*
%TD*%
D96*
%TO.C,D4*%
X104758910Y-139135020D03*
X104758910Y-141010020D03*
%TD*%
D26*
%TO.C,C25*%
X55211400Y-79506116D03*
X60611400Y-79506116D03*
%TD*%
D17*
%TO.C,R48*%
X135840901Y-106821145D03*
X137840901Y-106821145D03*
%TD*%
D97*
%TO.C,Css1*%
X68235161Y-155384756D03*
X68235161Y-157109756D03*
%TD*%
D32*
%TO.C,M3*%
X33217507Y-77353258D03*
D33*
X33217507Y-73393258D03*
%TD*%
D27*
%TO.C,Cin1*%
X76207754Y-162347012D03*
X78107754Y-162347012D03*
%TD*%
D26*
%TO.C,C21*%
X37671769Y-106421133D03*
X43071769Y-106421133D03*
%TD*%
D24*
%TO.C,D36*%
X144502713Y-116821145D03*
D25*
X141962713Y-116821145D03*
%TD*%
D98*
%TO.C,Cout1*%
X76157641Y-148099106D03*
X79282641Y-148099106D03*
%TD*%
D24*
%TO.C,D27*%
X152400000Y-81821145D03*
D25*
X149860000Y-81821145D03*
%TD*%
D99*
%TO.C,U1*%
X71686010Y-152884136D03*
D100*
X71686010Y-153386632D03*
D101*
X71686010Y-153884137D03*
D102*
X71686010Y-154386632D03*
D103*
X71686010Y-154886633D03*
D104*
X71686010Y-155384132D03*
D102*
X76986010Y-155386632D03*
D104*
X76986010Y-154884133D03*
D102*
X76986010Y-154386632D03*
D105*
X76986010Y-153886634D03*
D104*
X76986010Y-153384131D03*
D106*
X76986010Y-152884135D03*
D107*
X74336010Y-153209132D03*
D108*
X74336010Y-154134132D03*
D109*
X74336011Y-155059132D03*
%TD*%
D24*
%TO.C,D47*%
X152400000Y-141821145D03*
D25*
X149860000Y-141821145D03*
%TD*%
D24*
%TO.C,D40*%
X144424501Y-96821145D03*
D25*
X141884501Y-96821145D03*
%TD*%
D17*
%TO.C,R52*%
X135840901Y-86821145D03*
X137840901Y-86821145D03*
%TD*%
%TO.C,R38*%
X135840901Y-76821145D03*
X137840901Y-76821145D03*
%TD*%
D87*
%TO.C,R4*%
X93951208Y-70016878D03*
X93951208Y-68191878D03*
%TD*%
D40*
%TO.C,R14*%
X109220000Y-141081090D03*
X109220000Y-139081090D03*
%TD*%
D110*
%TO.C,Rfbt1*%
X60091505Y-153151976D03*
X60091505Y-151326976D03*
%TD*%
D17*
%TO.C,R56*%
X135840901Y-146821145D03*
X137840901Y-146821145D03*
%TD*%
D24*
%TO.C,D32*%
X144516193Y-56821145D03*
D25*
X141976193Y-56821145D03*
%TD*%
D29*
%TO.C,D6*%
X40876889Y-64464682D03*
X40876889Y-67004682D03*
%TD*%
D91*
%TO.C,U8*%
X44572359Y-93934196D03*
X44572359Y-94584196D03*
X44572359Y-95234196D03*
X44572359Y-95884196D03*
X44572359Y-96534196D03*
X44572359Y-97184196D03*
X44572359Y-97834196D03*
X44572359Y-98484196D03*
X44572359Y-99134196D03*
X44572359Y-99784196D03*
X44572359Y-100434196D03*
X44572359Y-101084196D03*
X51772359Y-101084196D03*
X51772359Y-100434196D03*
X51772359Y-99784196D03*
X51772359Y-99134196D03*
X51772359Y-98484196D03*
X51772359Y-97834196D03*
X51772359Y-97184196D03*
X51772359Y-96534196D03*
X51772359Y-95884196D03*
X51772359Y-95234196D03*
X51772359Y-94584196D03*
D111*
X52011988Y-92991170D03*
%TD*%
D21*
%TO.C,C11*%
X123577813Y-119027634D03*
X125652813Y-119027634D03*
%TD*%
D88*
%TO.C,D14*%
X46199106Y-164213661D03*
X46199106Y-162338661D03*
%TD*%
D95*
%TO.C,R13*%
X104351943Y-115092835D03*
X104351943Y-117092835D03*
%TD*%
D24*
%TO.C,D50*%
X144516193Y-126821145D03*
D25*
X141976193Y-126821145D03*
%TD*%
D24*
%TO.C,J8*%
X31768125Y-117909684D03*
D25*
X31768125Y-120449684D03*
X31768125Y-122989684D03*
X31768125Y-125529684D03*
X31768125Y-128069684D03*
%TD*%
D23*
%TO.C,U11*%
X127597301Y-73091145D03*
X127597301Y-71821145D03*
X127597301Y-70551145D03*
X127597301Y-69281145D03*
X127597301Y-68011145D03*
X127597301Y-66741145D03*
X127597301Y-65471145D03*
X127597301Y-64201145D03*
X120840901Y-64201145D03*
X120840901Y-65471145D03*
X120840901Y-66741145D03*
X120840901Y-68011145D03*
X120840901Y-69281145D03*
X120840901Y-70551145D03*
X120840901Y-71821145D03*
X120840901Y-73091145D03*
%TD*%
D17*
%TO.C,R60*%
X135840901Y-126821145D03*
X137840901Y-126821145D03*
%TD*%
%TO.C,R5*%
X45166165Y-54534293D03*
X47166165Y-54534293D03*
%TD*%
D24*
%TO.C,J3*%
X116840000Y-35560000D03*
D25*
X116840000Y-38100000D03*
X116840000Y-40640000D03*
%TD*%
D17*
%TO.C,R7*%
X50120469Y-47135555D03*
X52120469Y-47135555D03*
%TD*%
%TO.C,R8*%
X47707841Y-49456625D03*
X49707841Y-49456625D03*
%TD*%
M02*
