%TF.GenerationSoftware,KiCad,Pcbnew,7.0.10*%
%TF.CreationDate,2024-04-07T12:33:45-04:00*%
%TF.ProjectId,477grp2_pcb,34373767-7270-4325-9f70-63622e6b6963,rev?*%
%TF.SameCoordinates,Original*%
%TF.FileFunction,Soldermask,Bot*%
%TF.FilePolarity,Negative*%
%FSLAX46Y46*%
G04 Gerber Fmt 4.6, Leading zero omitted, Abs format (unit mm)*
G04 Created by KiCad (PCBNEW 7.0.10) date 2024-04-07 12:33:45*
%MOMM*%
%LPD*%
G01*
G04 APERTURE LIST*
G04 Aperture macros list*
%AMRoundRect*
0 Rectangle with rounded corners*
0 $1 Rounding radius*
0 $2 $3 $4 $5 $6 $7 $8 $9 X,Y pos of 4 corners*
0 Add a 4 corners polygon primitive as box body*
4,1,4,$2,$3,$4,$5,$6,$7,$8,$9,$2,$3,0*
0 Add four circle primitives for the rounded corners*
1,1,$1+$1,$2,$3*
1,1,$1+$1,$4,$5*
1,1,$1+$1,$6,$7*
1,1,$1+$1,$8,$9*
0 Add four rect primitives between the rounded corners*
20,1,$1+$1,$2,$3,$4,$5,0*
20,1,$1+$1,$4,$5,$6,$7,0*
20,1,$1+$1,$6,$7,$8,$9,0*
20,1,$1+$1,$8,$9,$2,$3,0*%
G04 Aperture macros list end*
%ADD10O,1.200000X1.900000*%
%ADD11C,1.450000*%
%ADD12C,0.800000*%
%ADD13C,5.000000*%
%ADD14R,1.219200X1.219200*%
%ADD15C,1.219200*%
%ADD16R,1.700000X1.700000*%
%ADD17O,1.700000X1.700000*%
%ADD18C,2.000000*%
%ADD19RoundRect,0.250001X1.099999X-1.099999X1.099999X1.099999X-1.099999X1.099999X-1.099999X-1.099999X0*%
%ADD20C,2.700000*%
%ADD21RoundRect,0.102000X-1.064000X1.064000X-1.064000X-1.064000X1.064000X-1.064000X1.064000X1.064000X0*%
%ADD22C,2.332000*%
%ADD23RoundRect,0.102000X1.064000X1.064000X-1.064000X1.064000X-1.064000X-1.064000X1.064000X-1.064000X0*%
G04 APERTURE END LIST*
D10*
%TO.C,J1*%
X70850000Y-33906190D03*
D11*
X69850000Y-36606190D03*
X64850000Y-36606190D03*
D10*
X63850000Y-33906190D03*
%TD*%
D12*
%TO.C,H4*%
X33569175Y-36774175D03*
X33020000Y-38100000D03*
X33020000Y-35448350D03*
X31694175Y-38649175D03*
D13*
X31694175Y-36774175D03*
D12*
X31694175Y-34899175D03*
X30368350Y-38100000D03*
X30368350Y-35448350D03*
X29819175Y-36774175D03*
%TD*%
D14*
%TO.C,U2*%
X52030197Y-135713480D03*
D15*
X52030197Y-133173480D03*
X52030197Y-130633480D03*
X52030197Y-128093480D03*
X52030197Y-125553480D03*
X52030197Y-123013480D03*
X52030197Y-120473480D03*
X52030197Y-117933480D03*
X44160200Y-117933480D03*
X44160200Y-120473480D03*
X44160200Y-123013480D03*
X44160200Y-125553480D03*
X44160200Y-128093480D03*
X44160200Y-130633480D03*
X44160200Y-133173480D03*
X44160200Y-135713480D03*
%TD*%
D12*
%TO.C,H2*%
X34290000Y-173878341D03*
X33740825Y-175204166D03*
X33740825Y-172552516D03*
X32415000Y-175753341D03*
D13*
X32415000Y-173878341D03*
D12*
X32415000Y-172003341D03*
X31089175Y-175204166D03*
X31089175Y-172552516D03*
X30540000Y-173878341D03*
%TD*%
D16*
%TO.C,D39*%
X152333109Y-101827736D03*
D17*
X149793109Y-101827736D03*
%TD*%
D16*
%TO.C,D37*%
X152400000Y-111821145D03*
D17*
X149860000Y-111821145D03*
%TD*%
D16*
%TO.C,D35*%
X152400000Y-121821145D03*
D17*
X149860000Y-121821145D03*
%TD*%
D18*
%TO.C,D10*%
X37083967Y-121854431D03*
X37083967Y-124394431D03*
%TD*%
D16*
%TO.C,J4*%
X35560000Y-52070000D03*
D17*
X33020000Y-52070000D03*
X30480000Y-52070000D03*
%TD*%
D16*
%TO.C,J6*%
X35545000Y-41910000D03*
D17*
X33005000Y-41910000D03*
X30465000Y-41910000D03*
%TD*%
D16*
%TO.C,D49*%
X152400000Y-131821145D03*
D17*
X149860000Y-131821145D03*
%TD*%
D16*
%TO.C,D29*%
X152400000Y-71821145D03*
D17*
X149860000Y-71821145D03*
%TD*%
D12*
%TO.C,H3*%
X152949175Y-36774175D03*
X152400000Y-38100000D03*
X152400000Y-35448350D03*
X151074175Y-38649175D03*
D13*
X151074175Y-36774175D03*
D12*
X151074175Y-34899175D03*
X149748350Y-38100000D03*
X149748350Y-35448350D03*
X149199175Y-36774175D03*
%TD*%
D19*
%TO.C,M2*%
X33226635Y-67931330D03*
D20*
X33226635Y-63971330D03*
%TD*%
D16*
%TO.C,D42*%
X144424501Y-86821145D03*
D17*
X141884501Y-86821145D03*
%TD*%
D16*
%TO.C,D30*%
X144516193Y-66821145D03*
D17*
X141976193Y-66821145D03*
%TD*%
D16*
%TO.C,J5*%
X35560000Y-57150000D03*
D17*
X33020000Y-57150000D03*
X30480000Y-57150000D03*
%TD*%
D18*
%TO.C,D9*%
X37083967Y-133034611D03*
X37083967Y-130494611D03*
%TD*%
D16*
%TO.C,D43*%
X152400000Y-161821145D03*
D17*
X149860000Y-161821145D03*
%TD*%
D16*
%TO.C,D46*%
X144516193Y-146821145D03*
D17*
X141976193Y-146821145D03*
%TD*%
D16*
%TO.C,D31*%
X152400000Y-61821145D03*
D17*
X149860000Y-61821145D03*
%TD*%
D18*
%TO.C,D5*%
X41148000Y-73152000D03*
X41148000Y-75692000D03*
%TD*%
D16*
%TO.C,D33*%
X152400000Y-51821145D03*
D17*
X149860000Y-51821145D03*
%TD*%
D16*
%TO.C,D41*%
X152400000Y-91821145D03*
D17*
X149860000Y-91821145D03*
%TD*%
D16*
%TO.C,D45*%
X152400000Y-151821145D03*
D17*
X149860000Y-151821145D03*
%TD*%
D21*
%TO.C,J9*%
X34170272Y-159978680D03*
D22*
X34170272Y-163938680D03*
%TD*%
D12*
%TO.C,H1*%
X152400000Y-173990000D03*
X151850825Y-175315825D03*
X151850825Y-172664175D03*
X150525000Y-175865000D03*
D13*
X150525000Y-173990000D03*
D12*
X150525000Y-172115000D03*
X149199175Y-175315825D03*
X149199175Y-172664175D03*
X148650000Y-173990000D03*
%TD*%
D16*
%TO.C,D38*%
X144502713Y-106821145D03*
D17*
X141962713Y-106821145D03*
%TD*%
D16*
%TO.C,D48*%
X144516193Y-136821145D03*
D17*
X141976193Y-136821145D03*
%TD*%
D19*
%TO.C,M12*%
X33494750Y-90718578D03*
D20*
X33494750Y-86758578D03*
%TD*%
D16*
%TO.C,D34*%
X144498120Y-46821145D03*
D17*
X141958120Y-46821145D03*
%TD*%
D18*
%TO.C,D8*%
X44151554Y-87382399D03*
X44151554Y-89922399D03*
%TD*%
D16*
%TO.C,D28*%
X144516193Y-76821145D03*
D17*
X141976193Y-76821145D03*
%TD*%
D23*
%TO.C,J10*%
X85400295Y-172683852D03*
D22*
X81440295Y-172683852D03*
X77480295Y-172683852D03*
%TD*%
D16*
%TO.C,J7*%
X35560000Y-46990000D03*
D17*
X33020000Y-46990000D03*
X30480000Y-46990000D03*
%TD*%
D18*
%TO.C,D7*%
X41148000Y-97028000D03*
X41148000Y-99568000D03*
%TD*%
D16*
%TO.C,D44*%
X144516193Y-156821145D03*
D17*
X141976193Y-156821145D03*
%TD*%
D19*
%TO.C,M1*%
X33572928Y-100152078D03*
D20*
X33572928Y-96192078D03*
%TD*%
D19*
%TO.C,M3*%
X33217507Y-77353258D03*
D20*
X33217507Y-73393258D03*
%TD*%
D16*
%TO.C,D36*%
X144502713Y-116821145D03*
D17*
X141962713Y-116821145D03*
%TD*%
D16*
%TO.C,D27*%
X152400000Y-81821145D03*
D17*
X149860000Y-81821145D03*
%TD*%
D16*
%TO.C,D47*%
X152400000Y-141821145D03*
D17*
X149860000Y-141821145D03*
%TD*%
D16*
%TO.C,D40*%
X144424501Y-96821145D03*
D17*
X141884501Y-96821145D03*
%TD*%
D16*
%TO.C,D32*%
X144516193Y-56821145D03*
D17*
X141976193Y-56821145D03*
%TD*%
D18*
%TO.C,D6*%
X40876889Y-64464682D03*
X40876889Y-67004682D03*
%TD*%
D16*
%TO.C,D50*%
X144516193Y-126821145D03*
D17*
X141976193Y-126821145D03*
%TD*%
D16*
%TO.C,J8*%
X31768125Y-117909684D03*
D17*
X31768125Y-120449684D03*
X31768125Y-122989684D03*
X31768125Y-125529684D03*
X31768125Y-128069684D03*
%TD*%
D16*
%TO.C,J3*%
X116840000Y-35560000D03*
D17*
X116840000Y-38100000D03*
X116840000Y-40640000D03*
%TD*%
M02*
