%TF.GenerationSoftware,KiCad,Pcbnew,7.0.10*%
%TF.CreationDate,2024-04-07T12:33:54-04:00*%
%TF.ProjectId,477grp2_pcb,34373767-7270-4325-9f70-63622e6b6963,rev?*%
%TF.SameCoordinates,Original*%
%TF.FileFunction,Drillmap*%
%TF.FilePolarity,Positive*%
%FSLAX45Y45*%
G04 Gerber Fmt 4.5, Leading zero omitted, Abs format (unit mm)*
G04 Created by KiCad (PCBNEW 7.0.10) date 2024-04-07 12:33:54*
%MOMM*%
%LPD*%
G01*
G04 APERTURE LIST*
%ADD10C,0.100000*%
%ADD11C,0.200000*%
G04 APERTURE END LIST*
D10*
X2707456Y-3257588D02*
X15529963Y-3257588D01*
X15529963Y-17845112D01*
X2707456Y-17845112D01*
X2707456Y-3257588D01*
D11*
X2963233Y-18161596D02*
X2963233Y-17961596D01*
X2963233Y-17961596D02*
X3010852Y-17961596D01*
X3010852Y-17961596D02*
X3039423Y-17971120D01*
X3039423Y-17971120D02*
X3058471Y-17990167D01*
X3058471Y-17990167D02*
X3067995Y-18009215D01*
X3067995Y-18009215D02*
X3077519Y-18047310D01*
X3077519Y-18047310D02*
X3077519Y-18075882D01*
X3077519Y-18075882D02*
X3067995Y-18113977D01*
X3067995Y-18113977D02*
X3058471Y-18133024D01*
X3058471Y-18133024D02*
X3039423Y-18152072D01*
X3039423Y-18152072D02*
X3010852Y-18161596D01*
X3010852Y-18161596D02*
X2963233Y-18161596D01*
X3163233Y-18161596D02*
X3163233Y-18028263D01*
X3163233Y-18066358D02*
X3172757Y-18047310D01*
X3172757Y-18047310D02*
X3182281Y-18037786D01*
X3182281Y-18037786D02*
X3201328Y-18028263D01*
X3201328Y-18028263D02*
X3220376Y-18028263D01*
X3287042Y-18161596D02*
X3287042Y-18028263D01*
X3287042Y-17961596D02*
X3277519Y-17971120D01*
X3277519Y-17971120D02*
X3287042Y-17980644D01*
X3287042Y-17980644D02*
X3296566Y-17971120D01*
X3296566Y-17971120D02*
X3287042Y-17961596D01*
X3287042Y-17961596D02*
X3287042Y-17980644D01*
X3410852Y-18161596D02*
X3391804Y-18152072D01*
X3391804Y-18152072D02*
X3382281Y-18133024D01*
X3382281Y-18133024D02*
X3382281Y-17961596D01*
X3515614Y-18161596D02*
X3496566Y-18152072D01*
X3496566Y-18152072D02*
X3487042Y-18133024D01*
X3487042Y-18133024D02*
X3487042Y-17961596D01*
X3744185Y-18161596D02*
X3744185Y-17961596D01*
X3744185Y-17961596D02*
X3810852Y-18104453D01*
X3810852Y-18104453D02*
X3877519Y-17961596D01*
X3877519Y-17961596D02*
X3877519Y-18161596D01*
X4058471Y-18161596D02*
X4058471Y-18056834D01*
X4058471Y-18056834D02*
X4048947Y-18037786D01*
X4048947Y-18037786D02*
X4029900Y-18028263D01*
X4029900Y-18028263D02*
X3991804Y-18028263D01*
X3991804Y-18028263D02*
X3972757Y-18037786D01*
X4058471Y-18152072D02*
X4039423Y-18161596D01*
X4039423Y-18161596D02*
X3991804Y-18161596D01*
X3991804Y-18161596D02*
X3972757Y-18152072D01*
X3972757Y-18152072D02*
X3963233Y-18133024D01*
X3963233Y-18133024D02*
X3963233Y-18113977D01*
X3963233Y-18113977D02*
X3972757Y-18094929D01*
X3972757Y-18094929D02*
X3991804Y-18085405D01*
X3991804Y-18085405D02*
X4039423Y-18085405D01*
X4039423Y-18085405D02*
X4058471Y-18075882D01*
X4153709Y-18028263D02*
X4153709Y-18228263D01*
X4153709Y-18037786D02*
X4172757Y-18028263D01*
X4172757Y-18028263D02*
X4210852Y-18028263D01*
X4210852Y-18028263D02*
X4229900Y-18037786D01*
X4229900Y-18037786D02*
X4239424Y-18047310D01*
X4239424Y-18047310D02*
X4248947Y-18066358D01*
X4248947Y-18066358D02*
X4248947Y-18123501D01*
X4248947Y-18123501D02*
X4239424Y-18142548D01*
X4239424Y-18142548D02*
X4229900Y-18152072D01*
X4229900Y-18152072D02*
X4210852Y-18161596D01*
X4210852Y-18161596D02*
X4172757Y-18161596D01*
X4172757Y-18161596D02*
X4153709Y-18152072D01*
X4334662Y-18142548D02*
X4344185Y-18152072D01*
X4344185Y-18152072D02*
X4334662Y-18161596D01*
X4334662Y-18161596D02*
X4325138Y-18152072D01*
X4325138Y-18152072D02*
X4334662Y-18142548D01*
X4334662Y-18142548D02*
X4334662Y-18161596D01*
X4334662Y-18037786D02*
X4344185Y-18047310D01*
X4344185Y-18047310D02*
X4334662Y-18056834D01*
X4334662Y-18056834D02*
X4325138Y-18047310D01*
X4325138Y-18047310D02*
X4334662Y-18037786D01*
X4334662Y-18037786D02*
X4334662Y-18056834D01*
M02*
